<svg id="Layer_1" data-name="Layer 1" xmlns="http://www.w3.org/2000/svg" xmlns:xlink="http://www.w3.org/1999/xlink" viewBox="0 0 164.2658 129.4653"><defs><style>.cls-1{fill:#fff;}.cls-2{fill:url(#New_Gradient_Swatch);}</style><linearGradient id="New_Gradient_Swatch" x1="44.39" y1="-0.64" x2="119.8758" y2="130.1053" gradientUnits="userSpaceOnUse"><stop offset="0" stop-color="#38cefc"/><stop offset="1" stop-color="#1b63b2"/></linearGradient></defs><path class="cls-1" d="M148.3856,15.82l-31.5,38.9132a20.0866,20.0866,0,0,1-13.707,7.4136c-.6918.0658-1.384.0988-2.0593.0988a20,20,0,0,1-12.8338-4.6294l-3.8713-3.18,27.4465-33.015A15.4463,15.4463,0,0,1,123.7887,15.82Z"/><path class="cls-1" d="M15.88,15.82l31.5,38.9132a20.0866,20.0866,0,0,0,13.707,7.4136c.6918.0658,1.3841.0988,2.0594.0988A20,20,0,0,0,75.98,57.6163l3.8712-3.18L52.4047,21.4216A15.4461,15.4461,0,0,0,40.4771,15.82Z"/><path class="cls-1" d="M148.3856,113.6452l-31.5-38.9132a20.0861,20.0861,0,0,0-13.707-7.4135c-.6918-.0659-1.384-.0989-2.0593-.0989A20,20,0,0,0,88.2859,71.849l-3.8713,3.18,27.4465,33.015a15.4463,15.4463,0,0,0,11.9276,5.6015Z"/><path class="cls-1" d="M15.88,113.6452,47.38,74.732a20.0861,20.0861,0,0,1,13.707-7.4135c.6918-.0659,1.3841-.0989,2.0594-.0989A20,20,0,0,1,75.98,71.849l3.8712,3.18-27.4465,33.015a15.4461,15.4461,0,0,1-11.9276,5.6015Z"/><path class="cls-2" d="M148.3856,15.82l-31.5,38.9132a20.0866,20.0866,0,0,1-13.707,7.4136c-.6918.0658-1.384.0988-2.0593.0988a20,20,0,0,1-12.8338-4.6294l-3.8713-3.18,27.4465-33.015A15.4463,15.4463,0,0,1,123.7887,15.82Z"/><path class="cls-2" d="M15.88,15.82l31.5,38.9132a20.0866,20.0866,0,0,0,13.707,7.4136c.6918.0658,1.3841.0988,2.0594.0988A20,20,0,0,0,75.98,57.6163l3.8712-3.18L52.4047,21.4216A15.4461,15.4461,0,0,0,40.4771,15.82Z"/><path class="cls-2" d="M148.3856,113.6452l-31.5-38.9132a20.0861,20.0861,0,0,0-13.707-7.4135c-.6918-.0659-1.384-.0989-2.0593-.0989A20,20,0,0,0,88.2859,71.849l-3.8713,3.18,27.4465,33.015a15.4463,15.4463,0,0,0,11.9276,5.6015Z"/><path class="cls-2" d="M15.88,113.6452,47.38,74.732a20.0861,20.0861,0,0,1,13.707-7.4135c.6918-.0659,1.3841-.0989,2.0594-.0989A20,20,0,0,1,75.98,71.849l3.8712,3.18-27.4465,33.015a15.4461,15.4461,0,0,1-11.9276,5.6015Z"/></svg>